<svg id="Capa_1" enable-background="new 0 0 512 512" height="50" viewBox="0 0 512 512" width="50" xmlns="http://www.w3.org/2000/svg"><g><circle cx="256" cy="256" fill="#abd5ed" r="256"></circle><path d="m512 256c0-7.464-.338-14.848-.964-22.15-44.18-44.18-116.443-116.443-116.443-116.443l-277.186 277.186s72.265 72.264 116.443 116.443c7.302.626 14.686.964 22.15.964 141.385 0 256-114.615 256-256z" fill="#97bedb"></path><g><path d="m256 60-48.797 98 48.797 98 103.801-34.792 34.792-103.801c-35.469-35.469-84.469-57.407-138.593-57.407z" fill="#ffe278"></path><path d="m256 60c-50.161 0-100.322 19.136-138.593 57.407l34.792 103.801 103.801 34.792z" fill="#b0d16f"></path><path d="m117.407 117.407c-35.469 35.469-57.407 84.469-57.407 138.593l98 48.797 98-48.797z" fill="#45c5ff"></path><path d="m60 256c0 50.161 19.136 100.322 57.407 138.593l103.801-34.792 34.792-103.801z" fill="#0ca8ed"></path><path d="m117.407 394.593c35.469 35.469 84.469 57.407 138.593 57.407l48.797-98-48.797-98z" fill="#1365c2"></path><path d="m256 452c50.161 0 100.322-19.136 138.593-57.407l-34.792-103.801-103.801-34.792z" fill="#f71e78"></path><path d="m394.593 394.593c35.469-35.469 57.407-84.469 57.407-138.593l-98-48.797-98 48.797z" fill="#ff776b"></path><path d="m394.593 117.407-138.593 138.593h196c0-50.161-19.136-100.322-57.407-138.593z" fill="#ffb54c"></path></g></g></svg>