<svg height="50" viewBox="-51 0 495 495.92" width="50" xmlns="http://www.w3.org/2000/svg"><path d="m224.460938 457.921875c-8.5625 3.839844-18 6-28 6s-19.449219-2.160156-28-6c-23.601563-10.640625-40-34.402344-40-62v32c0 27.597656 16.398437 51.359375 40 62 8.550781 3.839844 18 6 28 6s19.4375-2.160156 28-6c23.597656-10.640625 40-34.402344 40-62v-32c0 27.597656-16.402344 51.359375-40 62zm0 0" fill="#f6bb42"></path><path d="m264.460938 395.921875c0 27.597656-16.402344 51.359375-40 62-8.5625 3.839844-18 6-28 6s-19.449219-2.160156-28-6c-23.601563-10.640625-40-34.402344-40-62 0-27.523437 16.398437-51.28125 40-62 8.550781-3.84375 18-6 28-6s19.4375 2.15625 28 6c23.597656 10.71875 40 34.476563 40 62zm0 0" fill="#ffce54"></path><path d="m208.460938 111.921875c16.640624-.082031 32.640624-.480469 47.910156-1.042969 78.960937-3.117187 136.089844-12.167968 136.089844-22.878906v56l-168 159.921875v30c-8.5625-3.84375-18-6-28-6s-19.449219 2.15625-28 6v-30l-168-159.921875v-56c0 13.28125 87.757812 24 196 24 4 0 8.078124 0 12-.078125zm0 0" fill="#ed5565"></path><path d="m143.738281 64.878906c16.800781-.558594 34.480469-.878906 52.722657-.878906 108.230468 0 196 10.71875 196 24 0 10.71875-57.128907 19.769531-136.089844 22.878906v-.078125c-.550782-12.730469-11.117188-22.808593-23.910156-22.808593-13.28125 0-23.921876 10.640624-24 23.917968-3.921876.082032-8 .082032-12 .082032-108.242188 0-196-10.71875-196-24 0-8.160157 33.117187-15.359376 83.757812-19.679688 7.28125 7.199219 17.121094 11.679688 28.242188 11.679688 12.640624.007812 24-5.914063 31.277343-15.113282zm0 0" fill="#d3374e"></path><g fill="#ffce54"><path d="m288.460938 8c8.800781 0 16 7.128906 16 16 0 8.808594-7.199219 16-16 16-8.882813 0-16-7.191406-16-16 0-8.871094 7.117187-16 16-16zm0 0"></path><path d="m232.460938 88c12.800781 0 23.359374 10.078125 23.910156 22.808594v.078125c-15.269532.5625-31.269532.960937-47.910156 1.042969.078124-13.289063 10.71875-23.929688 24-23.929688zm0 0"></path><path d="m152.460938 40c0 9.449219-3.28125 18.078125-8.722657 24.878906-7.277343 9.191406-18.636719 15.121094-31.277343 15.121094-11.128907 0-20.960938-4.480469-28.242188-11.679688-7.277344-7.191406-11.757812-17.28125-11.757812-28.320312 0-22.078125 17.832031-40 40-40 22.078124 0 40 17.921875 40 40zm0 0"></path></g><path d="m360.460938 101.136719v34.855469l-164 156.128906v35.808594c10 0 19.4375 2.160156 28 6v-30l168-159.921876v-56c0 4.847657-11.824219 9.359376-32 13.128907zm0 0" fill="#da4453"></path><path d="m208.699219 23.9375c-4.421875 0-8.039063-3.578125-8.039063-8 0-4.425781 3.535156-8 7.953125-8h.085938c4.417969 0 8 3.574219 8 8 0 4.421875-3.582031 8-8 8zm0 0" fill="#ffce54"></path><path d="m352.699219 55.984375c-4.421875 0-8.039063-3.578125-8.039063-8 0-4.425781 3.535156-8 7.953125-8h.085938c4.417969 0 8 3.574219 8 8 0 4.421875-3.582031 8-8 8zm0 0" fill="#ffce54"></path><path d="m24.699219 55.9375c-4.421875 0-8.039063-3.578125-8.039063-8 0-4.425781 3.535156-8 7.953125-8h.085938c4.417969 0 8 3.574219 8 8 0 4.421875-3.582031 8-8 8zm0 0" fill="#ffce54"></path><path d="m216.460938 460.863281v32c2.734374-.832031 5.421874-1.792969 8-2.941406 2.78125-1.25 5.4375-2.722656 8-4.320313v-32c-2.5625 1.597657-5.21875 3.070313-8 4.320313-2.578126 1.15625-5.265626 2.109375-8 2.941406zm0 0" fill="#edab37"></path><path d="m160.460938 453.601562v32c2.558593 1.597657 5.214843 3.070313 8 4.320313 2.574218 1.15625 5.261718 2.109375 8 2.941406v-32c-2.738282-.832031-5.425782-1.792969-8-2.941406-2.785157-1.25-5.441407-2.722656-8-4.320313zm0 0" fill="#edab37"></path><path d="m196.460938 419.9375c-4.425782 0-8-3.578125-8-8v-32c0-4.425781 3.574218-8 8-8 4.421874 0 8 3.574219 8 8v32c0 4.421875-3.578126 8-8 8zm0 0" fill="#edab37"></path></svg>