<?xml version="1.0" encoding="UTF-8" standalone="no" ?>
<!DOCTYPE svg PUBLIC "-//W3C//DTD SVG 1.1//EN" "http://www.w3.org/Graphics/SVG/1.1/DTD/svg11.dtd">
<svg xmlns="http://www.w3.org/2000/svg" xmlns:xlink="http://www.w3.org/1999/xlink" version="1.1" width="1080" height="1080" viewBox="0 0 1080 1080" xml:space="preserve">
<desc>Created with Fabric.js 5.2.4</desc>
<defs>
</defs>
<rect x="0" y="0" width="100%" height="100%" fill="transparent"></rect>
<g transform="matrix(1 0 0 1 540 540)" id="68b10167-9184-47c3-bbab-fe27de22080f"  >
<rect style="stroke: none; stroke-width: 1; stroke-dasharray: none; stroke-linecap: butt; stroke-dashoffset: 0; stroke-linejoin: miter; stroke-miterlimit: 4; fill: rgb(255,255,255); fill-rule: nonzero; opacity: 1; visibility: hidden;" vector-effect="non-scaling-stroke"  x="-540" y="-540" rx="0" ry="0" width="1080" height="1080" />
</g>
<g transform="matrix(1 0 0 1 540 540)" id="138a4662-256a-4702-a159-85a81afcc1e8"  >
</g>
<g transform="matrix(2.11 0 0 2.11 540 540)"  >
<g style=""   >
		<g transform="matrix(1 0 0 1 0 169.82)" id="Layer_1"  >
<path style="stroke: none; stroke-width: 1; stroke-dasharray: none; stroke-linecap: butt; stroke-dashoffset: 0; stroke-linejoin: miter; stroke-miterlimit: 4; fill: rgb(142,226,107); fill-rule: nonzero; opacity: 1;" vector-effect="non-scaling-stroke"  transform=" translate(-256, -425.82)" d="M 293.594 460.524 L 256 422.93 L 218.406 460.524 C 212.549 466.38100000000003 203.05100000000002 466.38100000000003 197.193 460.524 C 191.335 454.667 191.335 445.169 197.193 439.311 L 245.39300000000003 391.111 C 251.25000000000003 385.25399999999996 260.74800000000005 385.25399999999996 266.60600000000005 391.111 L 314.80600000000004 439.311 C 320.66400000000004 445.168 320.66400000000004 454.666 314.80600000000004 460.524 C 308.94700000000006 466.384 299.45000000000005 466.38100000000003 293.59400000000005 460.524 z" stroke-linecap="round" />
</g>
		<g transform="matrix(1 0 0 1 31.6 169.82)" id="Layer_1"  >
<path style="stroke: none; stroke-width: 1; stroke-dasharray: none; stroke-linecap: butt; stroke-dashoffset: 0; stroke-linejoin: miter; stroke-miterlimit: 4; fill: rgb(0,203,117); fill-rule: nonzero; opacity: 1;" vector-effect="non-scaling-stroke"  transform=" translate(-287.6, -425.82)" d="M 293.594 460.524 C 299.451 466.38100000000003 308.947 466.384 314.807 460.524 C 320.665 454.667 320.665 445.169 314.807 439.311 L 266.607 391.111 C 263.67800000000005 388.182 259.83900000000006 386.718 256.00100000000003 386.718 L 256.00100000000003 422.93 z" stroke-linecap="round" />
</g>
		<g transform="matrix(1 0 0 1 0 29.02)" id="Layer_1"  >
<path style="stroke: none; stroke-width: 1; stroke-dasharray: none; stroke-linecap: butt; stroke-dashoffset: 0; stroke-linejoin: miter; stroke-miterlimit: 4; fill: rgb(0,203,117); fill-rule: nonzero; opacity: 1;" vector-effect="non-scaling-stroke"  transform=" translate(-256, -285.02)" d="M 256 416.717 C 161.941 416.717 85.418 340.19599999999997 85.418 246.13699999999997 C 85.418 216.16299999999998 93.33800000000001 186.64699999999996 108.29700000000001 160.81199999999995 C 112.44800000000001 153.64399999999995 121.626 151.19699999999995 128.794 155.34699999999995 C 135.96300000000002 159.49799999999996 138.41000000000003 168.67499999999995 134.25900000000001 175.84499999999994 C 121.94200000000001 197.11599999999993 115.418 221.43599999999995 115.418 246.13699999999994 C 115.418 323.65399999999994 178.482 386.717 256 386.717 C 333.51800000000003 386.717 396.582 323.654 396.582 246.13699999999997 C 396.582 221.43599999999998 390.05899999999997 197.11599999999999 377.741 175.84499999999997 C 373.59 168.67499999999998 376.036 159.49799999999996 383.20599999999996 155.34699999999998 C 390.37399999999997 151.19799999999998 399.55199999999996 153.64399999999998 403.703 160.81199999999998 C 418.662 186.647 426.582 216.164 426.582 246.137 C 426.582 340.196 350.05899999999997 416.717 256 416.717 z" stroke-linecap="round" />
</g>
		<g transform="matrix(1 0 0 1 85.29 29.02)" id="Layer_1"  >
<path style="stroke: none; stroke-width: 1; stroke-dasharray: none; stroke-linecap: butt; stroke-dashoffset: 0; stroke-linejoin: miter; stroke-miterlimit: 4; fill: rgb(0,130,48); fill-rule: nonzero; opacity: 1;" vector-effect="non-scaling-stroke"  transform=" translate(-341.29, -285.02)" d="M 256 386.717 C 333.517 386.717 396.582 323.654 396.582 246.13699999999997 C 396.582 221.43599999999998 390.05899999999997 197.11599999999999 377.741 175.84499999999997 C 373.59 168.67499999999998 376.036 159.49799999999996 383.20599999999996 155.34699999999998 C 390.37399999999997 151.19799999999998 399.55199999999996 153.64399999999998 403.703 160.81199999999998 C 418.662 186.647 426.582 216.164 426.582 246.137 C 426.582 340.196 350.06 416.717 256 416.717 z" stroke-linecap="round" />
</g>
		<g transform="matrix(1 0 0 1 -12.05 -24.25)" id="Layer_1"  >
<path style="stroke: none; stroke-width: 1; stroke-dasharray: none; stroke-linecap: butt; stroke-dashoffset: 0; stroke-linejoin: miter; stroke-miterlimit: 4; fill: rgb(255,236,41); fill-rule: nonzero; opacity: 1;" vector-effect="non-scaling-stroke"  transform=" translate(-243.95, -231.75)" d="M 296.167 327.082 L 231.89999999999998 327.082 C 223.61599999999999 327.082 216.89999999999998 320.366 216.89999999999998 312.082 L 216.89999999999998 230.682 L 191.73299999999998 230.682 C 186.051 230.682 180.85799999999998 227.47199999999998 178.31599999999997 222.39 C 175.77499999999998 217.309 176.32299999999998 211.22699999999998 179.73299999999998 206.682 L 227.933 142.415 C 230.766 138.638 235.212 136.415 239.933 136.415 L 296.166 136.415 C 304.45 136.415 311.166 143.131 311.166 151.415 L 311.166 312.082 C 311.167 320.366 304.451 327.082 296.167 327.082 z" stroke-linecap="round" />
</g>
		<g transform="matrix(1 0 0 1 -148.99 -140.78)" id="Layer_1"  >
<path style="stroke: none; stroke-width: 1; stroke-dasharray: none; stroke-linecap: butt; stroke-dashoffset: 0; stroke-linejoin: miter; stroke-miterlimit: 4; fill: rgb(142,226,107); fill-rule: nonzero; opacity: 1;" vector-effect="non-scaling-stroke"  transform=" translate(-107.01, -115.22)" d="M 113.767 181.338 L 81.185 162.52599999999998 C 54.79600000000001 147.29199999999997 45.731 113.59599999999998 60.994 87.16499999999998 L 79.799 54.58499999999998 C 83.941 47.41199999999998 93.11200000000001 44.95399999999998 100.287 49.09199999999998 L 132.876 67.90599999999998 C 159.215 83.10999999999999 168.27800000000002 116.91499999999998 153.07500000000002 143.26 C 153.074 143.262 153.07000000000002 143.268 153.07200000000003 143.266 C 153.07500000000002 143.26 134.26100000000002 175.844 134.26000000000002 175.845 C 130.139 182.984 120.97900000000001 185.501 113.76700000000002 181.338 z" stroke-linecap="round" />
</g>
		<g transform="matrix(1 0 0 1 -194.47 -48.76)" id="Layer_1"  >
<path style="stroke: none; stroke-width: 1; stroke-dasharray: none; stroke-linecap: butt; stroke-dashoffset: 0; stroke-linejoin: miter; stroke-miterlimit: 4; fill: rgb(190,231,94); fill-rule: nonzero; opacity: 1;" vector-effect="non-scaling-stroke"  transform=" translate(-61.53, -207.24)" d="M 100.421 261.137 L 62.80100000000001 261.137 C 32.382000000000005 261.137 7.6340000000000074 236.389 7.6340000000000074 205.97 L 7.6340000000000074 168.347 C 7.6340000000000074 160.06300000000002 14.350000000000009 153.347 22.634000000000007 153.347 L 60.254000000000005 153.347 C 90.673 153.347 115.421 178.094 115.421 208.513 L 115.421 246.137 C 115.421 254.422 108.70500000000001 261.137 100.421 261.137 z" stroke-linecap="round" />
</g>
		<g transform="matrix(1 0 0 1 -187.87 53.69)" id="Layer_1"  >
<path style="stroke: none; stroke-width: 1; stroke-dasharray: none; stroke-linecap: butt; stroke-dashoffset: 0; stroke-linejoin: miter; stroke-miterlimit: 4; fill: rgb(142,226,107); fill-rule: nonzero; opacity: 1;" vector-effect="non-scaling-stroke"  transform=" translate(-68.13, -309.69)" d="M 20.824 335.534 L 2.011000000000003 302.953 C -2.1299999999999972 295.779 0.32800000000000273 286.606 7.5020000000000024 282.464 L 40.087 263.652 C 66.465 248.41899999999998 100.18100000000001 257.416 115.44200000000001 283.842 C 124.95500000000001 300.311 134.258 316.428 134.258 316.428 C 138.4 323.602 135.942 332.775 128.768 336.917 L 96.184 355.72999999999996 C 69.78999999999999 370.965 36.077999999999996 361.96799999999996 20.823999999999998 335.53399999999993 z" stroke-linecap="round" />
</g>
		<g transform="matrix(1 0 0 1 -130.92 139.13)" id="Layer_1"  >
<path style="stroke: none; stroke-width: 1; stroke-dasharray: none; stroke-linecap: butt; stroke-dashoffset: 0; stroke-linejoin: miter; stroke-miterlimit: 4; fill: rgb(190,231,94); fill-rule: nonzero; opacity: 1;" vector-effect="non-scaling-stroke"  transform=" translate(-125.08, -395.13)" d="M 97.033 441.148 L 64.45 422.33700000000005 C 57.276 418.19500000000005 54.818000000000005 409.023 58.959 401.84900000000005 L 77.765 369.26500000000004 C 92.978 342.9200000000001 126.787 333.86500000000007 153.131 349.071 C 153.132 349.072 153.133 349.072 153.134 349.07300000000004 C 153.131 349.071 185.713 367.88200000000006 185.713 367.88200000000006 C 192.891 372.02500000000003 195.346 381.20900000000006 191.204 388.37800000000004 C 191.203 388.379 172.393 420.95500000000004 172.393 420.95500000000004 C 157.157 447.33900000000006 123.461 456.41200000000003 97.033 441.148 z" stroke-linecap="round" />
</g>
		<g transform="matrix(1 0 0 1 148.99 -140.78)" id="Layer_1"  >
<path style="stroke: none; stroke-width: 1; stroke-dasharray: none; stroke-linecap: butt; stroke-dashoffset: 0; stroke-linejoin: miter; stroke-miterlimit: 4; fill: rgb(0,203,117); fill-rule: nonzero; opacity: 1;" vector-effect="non-scaling-stroke"  transform=" translate(-404.99, -115.22)" d="M 398.233 181.338 L 430.815 162.52599999999998 C 457.204 147.29199999999997 466.269 113.59599999999998 451.006 87.16499999999998 L 432.20099999999996 54.58499999999998 C 428.05899999999997 47.41199999999998 418.888 44.95399999999998 411.71299999999997 49.09199999999998 L 379.12399999999997 67.90599999999998 C 352.78499999999997 83.10999999999999 343.722 116.91499999999998 358.92499999999995 143.26 C 358.92599999999993 143.262 358.92999999999995 143.268 358.92799999999994 143.266 C 358.92499999999995 143.26 377.7389999999999 175.844 377.73999999999995 175.845 C 381.86099999999993 182.984 391.02099999999996 185.501 398.23299999999995 181.338 z" stroke-linecap="round" />
</g>
		<g transform="matrix(1 0 0 1 194.47 -48.76)" id="Layer_1"  >
<path style="stroke: none; stroke-width: 1; stroke-dasharray: none; stroke-linecap: butt; stroke-dashoffset: 0; stroke-linejoin: miter; stroke-miterlimit: 4; fill: rgb(142,226,107); fill-rule: nonzero; opacity: 1;" vector-effect="non-scaling-stroke"  transform=" translate(-450.47, -207.24)" d="M 411.579 261.137 L 449.199 261.137 C 479.618 261.137 504.366 236.389 504.366 205.97 L 504.366 168.347 C 504.366 160.06300000000002 497.65 153.347 489.366 153.347 L 451.746 153.347 C 421.327 153.347 396.57899999999995 178.094 396.57899999999995 208.513 L 396.57899999999995 246.137 C 396.57899999999995 254.422 403.29499999999996 261.137 411.57899999999995 261.137 z" stroke-linecap="round" />
</g>
		<g transform="matrix(1 0 0 1 187.87 53.69)" id="Layer_1"  >
<path style="stroke: none; stroke-width: 1; stroke-dasharray: none; stroke-linecap: butt; stroke-dashoffset: 0; stroke-linejoin: miter; stroke-miterlimit: 4; fill: rgb(0,203,117); fill-rule: nonzero; opacity: 1;" vector-effect="non-scaling-stroke"  transform=" translate(-443.87, -309.69)" d="M 491.176 335.534 L 509.989 302.953 C 514.13 295.779 511.67199999999997 286.606 504.498 282.464 L 471.913 263.652 C 445.535 248.41899999999998 411.819 257.416 396.558 283.842 C 387.045 300.311 377.742 316.428 377.742 316.428 C 373.6 323.602 376.058 332.775 383.232 336.917 L 415.817 355.72999999999996 C 442.21000000000004 370.965 475.922 361.96799999999996 491.176 335.53399999999993 z" stroke-linecap="round" />
</g>
		<g transform="matrix(1 0 0 1 130.92 139.13)" id="Layer_1"  >
<path style="stroke: none; stroke-width: 1; stroke-dasharray: none; stroke-linecap: butt; stroke-dashoffset: 0; stroke-linejoin: miter; stroke-miterlimit: 4; fill: rgb(142,226,107); fill-rule: nonzero; opacity: 1;" vector-effect="non-scaling-stroke"  transform=" translate(-386.92, -395.13)" d="M 414.967 441.148 L 447.54999999999995 422.33700000000005 C 454.72399999999993 418.19500000000005 457.18199999999996 409.023 453.04099999999994 401.84900000000005 L 434.23499999999996 369.26500000000004 C 419.02199999999993 342.9200000000001 385.21299999999997 333.86500000000007 358.86899999999997 349.071 C 358.868 349.072 358.86699999999996 349.072 358.866 349.07300000000004 C 358.86899999999997 349.071 326.287 367.88200000000006 326.287 367.88200000000006 C 319.109 372.02500000000003 316.654 381.20900000000006 320.796 388.37800000000004 C 320.79699999999997 388.379 339.60699999999997 420.95500000000004 339.60699999999997 420.95500000000004 C 354.84299999999996 447.33900000000006 388.539 456.41200000000003 414.967 441.148 z" stroke-linecap="round" />
</g>
		<g transform="matrix(1 0 0 1 27.58 -24.25)" id="Layer_1"  >
<path style="stroke: none; stroke-width: 1; stroke-dasharray: none; stroke-linecap: butt; stroke-dashoffset: 0; stroke-linejoin: miter; stroke-miterlimit: 4; fill: rgb(255,203,0); fill-rule: nonzero; opacity: 1;" vector-effect="non-scaling-stroke"  transform=" translate(-283.58, -231.75)" d="M 296.167 136.415 L 255.99999999999997 136.415 L 255.99999999999997 327.082 L 296.167 327.082 C 304.45099999999996 327.082 311.167 320.366 311.167 312.082 L 311.167 151.415 C 311.167 143.131 304.45099999999996 136.415 296.167 136.415 z" stroke-linecap="round" />
</g>
</g>
</g>
</svg>