<?xml version="1.0" encoding="UTF-8" standalone="no" ?>
<!DOCTYPE svg PUBLIC "-//W3C//DTD SVG 1.1//EN" "http://www.w3.org/Graphics/SVG/1.1/DTD/svg11.dtd">
<svg xmlns="http://www.w3.org/2000/svg" xmlns:xlink="http://www.w3.org/1999/xlink" version="1.1" width="1080" height="1080" viewBox="0 0 1080 1080" xml:space="preserve">
<desc>Created with Fabric.js 5.2.4</desc>
<defs>
</defs>
<g transform="matrix(1 0 0 1 540 540)" id="68b10167-9184-47c3-bbab-fe27de22080f"  >
<rect style="stroke: none; stroke-width: 1; stroke-dasharray: none; stroke-linecap: butt; stroke-dashoffset: 0; stroke-linejoin: miter; stroke-miterlimit: 4; fill: rgb(255,255,255); fill-rule: nonzero; opacity: 1; visibility: hidden;" vector-effect="non-scaling-stroke"  x="-540" y="-540" rx="0" ry="0" width="1080" height="1080" />
</g>
<g transform="matrix(1 0 0 1 540 540)" id="138a4662-256a-4702-a159-85a81afcc1e8"  >
</g>
<g transform="matrix(2.11 0 0 2.11 540 540)"  >
<g style=""   >
		<g transform="matrix(1 0 0 1 39.79 -89.03)" id="Capa_1"  >
<path style="stroke: none; stroke-width: 1; stroke-dasharray: none; stroke-linecap: butt; stroke-dashoffset: 0; stroke-linejoin: miter; stroke-miterlimit: 4; fill: rgb(155,196,249); fill-rule: nonzero; opacity: 1;" vector-effect="non-scaling-stroke"  transform=" translate(-295.79, -166.97)" d="M 274.106 135.128 L 274.106 198.82299999999998 L 300.293 198.82299999999998 C 309.778 198.82299999999998 317.468 191.134 317.468 181.64799999999997 L 317.468 152.30199999999996 C 317.468 142.81699999999995 309.779 135.12699999999995 300.293 135.12699999999995 L 274.106 135.12699999999995 z" stroke-linecap="round" />
</g>
		<g transform="matrix(1 0 0 1 -153.68 -89.03)" id="Capa_1"  >
<path style="stroke: none; stroke-width: 1; stroke-dasharray: none; stroke-linecap: butt; stroke-dashoffset: 0; stroke-linejoin: miter; stroke-miterlimit: 4; fill: rgb(155,196,249); fill-rule: nonzero; opacity: 1;" vector-effect="non-scaling-stroke"  transform=" translate(-102.32, -166.97)" d="M 124.002 135.128 L 124.002 198.82299999999998 L 97.815 198.82299999999998 C 88.33 198.82299999999998 80.64 191.134 80.64 181.64799999999997 L 80.64 152.30199999999996 C 80.64 142.81699999999995 88.32900000000001 135.12699999999995 97.815 135.12699999999995 L 124.002 135.12699999999995 z" stroke-linecap="round" />
</g>
		<g transform="matrix(1 0 0 1 136.66 -198.91)" id="Capa_1"  >
<path style="stroke: none; stroke-width: 1; stroke-dasharray: none; stroke-linecap: butt; stroke-dashoffset: 0; stroke-linejoin: miter; stroke-miterlimit: 4; fill: rgb(179,229,159); fill-rule: nonzero; opacity: 1;" vector-effect="non-scaling-stroke"  transform=" translate(-392.66, -57.09)" d="M 425.765 0.322 L 359.581 0.322 C 347.171 0.322 337.111 10.382 337.111 22.791999999999998 L 337.111 87.784 C 337.111 100.194 347.171 110.254 359.581 110.254 C 366.916 110.254 367.997 111.625 370.35 113.86 L 411.81500000000005 113.86 C 414.22200000000004 111.575 415.59200000000004 110.254 423.00300000000004 110.254 L 426.21600000000007 110.254 L 426.21600000000007 110.24900000000001 C 438.4080000000001 109.998 448.2150000000001 100.037 448.2150000000001 87.78500000000001 L 448.2150000000001 22.79100000000001 C 448.2150000000001 10.38800000000001 438.1660000000001 0.3330000000000126 425.7650000000001 0.32200000000000983 z" stroke-linecap="round" />
</g>
		<g transform="matrix(1 0 0 1 211.11 -200.71)" id="Capa_1"  >
<path style="stroke: none; stroke-width: 1; stroke-dasharray: none; stroke-linecap: butt; stroke-dashoffset: 0; stroke-linejoin: miter; stroke-miterlimit: 4; fill: rgb(149,214,164); fill-rule: nonzero; opacity: 1;" vector-effect="non-scaling-stroke"  transform=" translate(-467.11, -55.29)" d="M 489.53 0.322 L 422.22499999999997 0.322 C 434.635 0.322 444.69499999999994 10.382 444.69499999999994 22.791999999999998 L 444.69499999999994 87.784 C 444.69499999999994 100.036 434.88899999999995 109.998 422.6959999999999 110.248 L 422.6959999999999 110.257 C 422.7979999999999 110.25500000000001 422.8999999999999 110.253 423.00299999999993 110.253 L 489.53099999999995 110.253 C 501.941 110.253 512.001 100.193 512.001 87.783 L 512.001 22.790999999999997 C 512 10.381999999999996 501.94 0.3219999999999956 489.53 0.3219999999999956 z" stroke-linecap="round" />
</g>
		<g transform="matrix(1 0 0 1 187.7 -217.62)" id="Capa_1"  >
<path style="stroke: none; stroke-width: 1; stroke-dasharray: none; stroke-linecap: butt; stroke-dashoffset: 0; stroke-linejoin: miter; stroke-miterlimit: 4; fill: rgb(242,249,255); fill-rule: nonzero; opacity: 1;" vector-effect="non-scaling-stroke"  transform=" translate(-443.7, -38.38)" d="M 477.406 46.103 L 409.98900000000003 46.103 C 405.72200000000004 46.103 402.26300000000003 42.644 402.26300000000003 38.377 C 402.26300000000003 34.11000000000001 405.72200000000004 30.651000000000003 409.98900000000003 30.651000000000003 L 477.40600000000006 30.651000000000003 C 481.67300000000006 30.651000000000003 485.13200000000006 34.11000000000001 485.13200000000006 38.377 C 485.13200000000006 42.644 481.67300000000006 46.103 477.40600000000006 46.103 z" stroke-linecap="round" />
</g>
		<g transform="matrix(1 0 0 1 119.81 -217.62)" id="Capa_1"  >
<path style="stroke: none; stroke-width: 1; stroke-dasharray: none; stroke-linecap: butt; stroke-dashoffset: 0; stroke-linejoin: miter; stroke-miterlimit: 4; fill: rgb(242,249,255); fill-rule: nonzero; opacity: 1;" vector-effect="non-scaling-stroke"  transform=" translate(-375.81, -38.38)" d="M 379.923 46.103 L 371.706 46.103 C 367.439 46.103 363.98 42.644 363.98 38.377 C 363.98 34.11000000000001 367.439 30.651000000000003 371.706 30.651000000000003 L 379.923 30.651000000000003 C 384.19 30.651000000000003 387.649 34.11000000000001 387.649 38.377 C 387.649 42.644 384.19 46.103 379.923 46.103 z" stroke-linecap="round" />
</g>
		<g transform="matrix(1 0 0 1 168.56 -181.33)" id="Capa_1"  >
<path style="stroke: none; stroke-width: 1; stroke-dasharray: none; stroke-linecap: butt; stroke-dashoffset: 0; stroke-linejoin: miter; stroke-miterlimit: 4; fill: rgb(242,249,255); fill-rule: nonzero; opacity: 1;" vector-effect="non-scaling-stroke"  transform=" translate(-424.56, -74.67)" d="M 477.406 82.398 L 371.706 82.398 C 367.439 82.398 363.98 78.939 363.98 74.672 C 363.98 70.405 367.439 66.946 371.706 66.946 L 477.406 66.946 C 481.673 66.946 485.132 70.405 485.132 74.672 C 485.132 78.939 481.673 82.398 477.406 82.398 z" stroke-linecap="round" />
</g>
		<g transform="matrix(1 0 0 1 -56.9 31.02)" id="Capa_1"  >
<path style="stroke: none; stroke-width: 1; stroke-dasharray: none; stroke-linecap: butt; stroke-dashoffset: 0; stroke-linejoin: miter; stroke-miterlimit: 4; fill: rgb(255,221,206); fill-rule: nonzero; opacity: 1;" vector-effect="non-scaling-stroke"  transform=" translate(-199.1, -287.02)" d="M 260.309 314.703 C 249.717 312.66499999999996 242.062 303.39599999999996 242.062 292.609 L 242.062 230.813 L 156.046 230.813 L 156.046 292.609 C 156.046 303.62899999999996 148.095 312.726 137.79899999999998 314.703 L 159.04899999999998 343.222 L 239.05999999999997 343.222 C 239.05899999999997 343.222 261.95099999999996 315.019 260.30899999999997 314.703 z" stroke-linecap="round" />
</g>
		<g transform="matrix(1 0 0 1 -56.95 146.63)" id="Capa_1"  >
<path style="stroke: none; stroke-width: 1; stroke-dasharray: none; stroke-linecap: butt; stroke-dashoffset: 0; stroke-linejoin: miter; stroke-miterlimit: 4; fill: rgb(255,208,100); fill-rule: nonzero; opacity: 1;" vector-effect="non-scaling-stroke"  transform=" translate(-199.05, -402.63)" d="M 391.926 486.499 L 391.926 449.77700000000004 C 391.926 386.07300000000004 346.715 331.331 284.159 319.29200000000003 C 278.034 318.11300000000006 113.94999999999999 319.29200000000003 113.94999999999999 319.29200000000003 C 51.39299999999999 331.33200000000005 6.181999999999988 386.07300000000004 6.181999999999988 449.77700000000004 L 6.181999999999988 486.499 z" stroke-linecap="round" />
</g>
		<g transform="matrix(1 0 0 1 -88.37 145.56)" id="Capa_1"  >
<path style="stroke: none; stroke-width: 1; stroke-dasharray: none; stroke-linecap: butt; stroke-dashoffset: 0; stroke-linejoin: miter; stroke-miterlimit: 4; fill: rgb(234,242,255); fill-rule: nonzero; opacity: 1;" vector-effect="non-scaling-stroke"  transform=" translate(-167.63, -401.56)" d="M 277.774 312.374 L 57.492999999999995 312.374 C 43.888999999999996 312.374 33.074 323.793 33.81099999999999 337.37600000000003 L 42.13499999999999 490.73900000000003 L 293.132 490.73900000000003 L 301.456 337.37600000000003 C 302.19300000000004 323.79200000000003 291.37800000000004 312.374 277.774 312.374 z" stroke-linecap="round" />
</g>
		<g transform="matrix(1 0 0 1 62.82 145.56)" id="Capa_1"  >
<path style="stroke: none; stroke-width: 1; stroke-dasharray: none; stroke-linecap: butt; stroke-dashoffset: 0; stroke-linejoin: miter; stroke-miterlimit: 4; fill: rgb(219,232,249); fill-rule: nonzero; opacity: 1;" vector-effect="non-scaling-stroke"  transform=" translate(-318.82, -401.56)" d="M 340.615 312.374 L 273.31 312.374 C 286.914 312.374 297.729 323.793 296.992 337.37600000000003 L 288.668 490.73900000000003 L 355.973 490.73900000000003 L 364.297 337.37600000000003 C 365.03400000000005 323.79200000000003 354.21900000000005 312.374 340.615 312.374 z" stroke-linecap="round" />
</g>
		<g transform="matrix(1 0 0 1 -89.49 239.06)" id="Capa_1"  >
<path style="stroke: none; stroke-width: 1; stroke-dasharray: none; stroke-linecap: butt; stroke-dashoffset: 0; stroke-linejoin: miter; stroke-miterlimit: 4; fill: rgb(155,196,249); fill-rule: nonzero; opacity: 1;" vector-effect="non-scaling-stroke"  transform=" translate(-166.51, -495.06)" d="M 333.022 495.065 L 333.022 482.383 L 330.318 478.452 L 16.613999999999976 478.452 C 7.437999999999976 478.451 -2.4868995751603507e-14 485.889 -2.4868995751603507e-14 495.065 C -2.4868995751603507e-14 504.24 7.437999999999975 511.678 16.613999999999976 511.678 L 316.41799999999995 511.678 C 325.58899999999994 511.673 333.02199999999993 504.237 333.02199999999993 495.065 z" stroke-linecap="round" />
</g>
		<g transform="matrix(1 0 0 1 99.91 239.06)" id="Capa_1"  >
<path style="stroke: none; stroke-width: 1; stroke-dasharray: none; stroke-linecap: butt; stroke-dashoffset: 0; stroke-linejoin: miter; stroke-miterlimit: 4; fill: rgb(127,178,249); fill-rule: nonzero; opacity: 1;" vector-effect="non-scaling-stroke"  transform=" translate(-355.91, -495.06)" d="M 381.494 478.451 L 330.317 478.451 L 330.317 495.065 C 330.317 504.24 322.879 511.679 313.70300000000003 511.679 L 381.49300000000005 511.679 C 390.66800000000006 511.679 398.107 504.241 398.107 495.065 C 398.108 485.889 390.67 478.451 381.494 478.451 z" stroke-linecap="round" />
</g>
		<g transform="matrix(1 0 0 1 -56.95 167.46)" id="Capa_1"  >
<path style="stroke: none; stroke-width: 1; stroke-dasharray: none; stroke-linecap: butt; stroke-dashoffset: 0; stroke-linejoin: miter; stroke-miterlimit: 4; fill: rgb(188,214,249); fill-rule: nonzero; opacity: 1;" vector-effect="non-scaling-stroke"  transform=" translate(-199.05, -423.46)" d="M 219.784 478.451 C 219.784 464.836 224.885 451.747 233.994 441.62800000000004 C 234.062 441.55300000000005 234.13 441.47700000000003 234.198 441.40000000000003 C 241.64700000000002 433.06600000000003 246.17600000000002 422.067 246.17600000000002 410.01000000000005 C 246.17600000000002 392.43800000000005 236.55700000000002 377.11300000000006 222.298 369.011 C 219.593 367.47400000000005 216.232 369.40700000000004 216.232 372.519 L 216.232 407.576 C 216.232 413.452 211.468 418.216 205.59199999999998 418.216 L 192.51199999999997 418.216 C 186.63599999999997 418.216 181.87199999999996 413.452 181.87199999999996 407.576 L 181.87199999999996 372.519 C 181.87199999999996 369.408 178.51099999999997 367.474 175.80599999999995 369.011 C 161.54699999999997 377.113 151.92799999999994 392.43800000000005 151.92799999999994 410.01000000000005 C 151.92799999999994 422.06800000000004 156.45699999999994 433.06700000000006 163.90599999999995 441.40000000000003 L 164.10999999999996 441.62800000000004 C 173.21899999999997 451.74700000000007 178.31999999999996 464.836 178.31999999999996 478.451 z" stroke-linecap="round" />
</g>
		<g transform="matrix(1 0 0 1 -79.55 -96.08)" id="Capa_1"  >
<path style="stroke: none; stroke-width: 1; stroke-dasharray: none; stroke-linecap: butt; stroke-dashoffset: 0; stroke-linejoin: miter; stroke-miterlimit: 4; fill: rgb(255,221,206); fill-rule: nonzero; opacity: 1;" vector-effect="non-scaling-stroke"  transform=" translate(-176.45, -159.92)" d="M 211.403 258.193 C 228.53699999999998 243.13199999999998 237.964 221.02299999999997 238.355 198.093 L 238.075 87.359 C 238.017 73.69 234.85299999999998 60.706999999999994 228.76899999999998 49.028999999999996 C 219.23799999999997 45.483 208.99699999999999 43.55199999999999 198.51199999999997 43.477999999999994 C 154.30599999999998 44.166 114.35199999999998 77.946 114.55499999999998 126.658 L 114.62299999999998 142.988 L 114.87399999999998 197.821 C 115.44299999999998 220.232 124.83799999999998 241.766 141.70999999999998 256.345 C 151.68599999999998 264.96500000000003 164.61899999999997 272.764 180.74099999999999 276.36800000000005 C 193.03599999999997 272.05600000000004 203.212 265.39300000000003 211.403 258.19300000000004 z" stroke-linecap="round" />
</g>
		<g transform="matrix(1 0 0 1 -26.55 -92.94)" id="Capa_1"  >
<path style="stroke: none; stroke-width: 1; stroke-dasharray: none; stroke-linecap: butt; stroke-dashoffset: 0; stroke-linejoin: miter; stroke-miterlimit: 4; fill: rgb(255,203,190); fill-rule: nonzero; opacity: 1;" vector-effect="non-scaling-stroke"  transform=" translate(-229.45, -163.06)" d="M 283.16 125.938 C 282.999 87.244 257.49800000000005 58.05 224.66500000000002 47.64 C 231.66100000000003 59.474000000000004 235.776 73.403 235.84000000000003 88.852 L 236.11400000000003 197.101 C 235.73200000000003 219.516 226.51700000000002 241.129 209.76700000000002 255.852 C 200.81900000000002 263.717 189.44800000000004 270.92900000000003 175.46900000000002 275.008 C 182.76100000000002 277.13599999999997 190.76000000000002 278.412 199.49300000000002 278.47299999999996 C 224.622 278.08199999999994 243.603 267.7049999999999 257.088 255.85199999999995 C 273.838 241.12899999999993 283.053 219.51599999999996 283.435 197.10099999999994 z" stroke-linecap="round" />
</g>
		<g transform="matrix(1 0 0 1 -89.61 -161.77)" id="Capa_1"  >
<path style="stroke: none; stroke-width: 1; stroke-dasharray: none; stroke-linecap: butt; stroke-dashoffset: 0; stroke-linejoin: miter; stroke-miterlimit: 4; fill: rgb(117,110,120); fill-rule: nonzero; opacity: 1;" vector-effect="non-scaling-stroke"  transform=" translate(-166.39, -94.23)" d="M 196.128 98.44 L 201.981 98.44 C 209.92499999999998 98.474 217.763 97 225.327 94.57 C 229.44 93.249 233.739 92.54899999999999 238.088 92.517 L 238.075 87.359 C 238.01 72.178 234.11599999999999 57.842 226.643 45.20099999999999 C 226.648 45.202999999999996 226.653 45.20399999999999 226.658 45.205999999999996 C 223.755 40.29599999999999 220.36499999999998 35.741 216.56699999999998 31.578999999999994 L 209.82 29.300999999999995 L 160.625 29.300999999999995 C 124.21000000000001 29.300999999999995 94.689 58.821 94.689 95.237 L 94.689 138.81099999999998 C 94.689 145.21099999999998 98.73899999999999 150.91099999999997 104.78399999999999 153.015 L 121.026 158.67 C 126.703 160.647 132.631 156.426 132.62199999999999 150.415 L 132.58599999999998 119.689 C 132.52399999999997 104.746 144.44 92.58099999999999 159.20299999999997 92.518 L 159.52499999999998 92.516 C 164.04299999999998 92.497 168.51299999999998 93.19900000000001 172.78199999999998 94.57000000000001 C 180.34499999999997 97.00000000000001 188.183 98.474 196.128 98.44000000000001 z" stroke-linecap="round" />
</g>
		<g transform="matrix(1 0 0 1 0.62 -161.77)" id="Capa_1"  >
<path style="stroke: none; stroke-width: 1; stroke-dasharray: none; stroke-linecap: butt; stroke-dashoffset: 0; stroke-linejoin: miter; stroke-miterlimit: 4; fill: rgb(102,94,102); fill-rule: nonzero; opacity: 1;" vector-effect="non-scaling-stroke"  transform=" translate(-256.62, -94.23)" d="M 277.71 63.693 L 276.844 63.693 C 272.049 63.693 268.161 59.805 268.161 55.01 C 268.161 40.811 256.651 29.301 242.452 29.301 L 209.82 29.301 C 225.557 43.824 235.738 64.45 235.839 88.851 L 235.84799999999998 92.6 C 236.75699999999998 92.54499999999999 237.66799999999998 92.512 238.582 92.51599999999999 L 238.903 92.51799999999999 C 253.666 92.58199999999998 265.582 104.74599999999998 265.52 119.689 L 265.49 150.418 C 265.482 156.428 271.41 160.647 277.086 158.671 L 293.322 153.016 C 299.366 150.911 303.416 145.212 303.416 138.81199999999998 L 303.416 89.40199999999999 C 303.418 75.20299999999999 291.908 63.692999999999984 277.71 63.692999999999984 z" stroke-linecap="round" />
</g>
		<g transform="matrix(1 0 0 1 18.14 -44.49)" id="Capa_1"  >
<path style="stroke: none; stroke-width: 1; stroke-dasharray: none; stroke-linecap: butt; stroke-dashoffset: 0; stroke-linejoin: miter; stroke-miterlimit: 4; fill: rgb(219,232,249); fill-rule: nonzero; opacity: 1;" vector-effect="non-scaling-stroke"  transform=" translate(-274.14, -211.51)" d="M 302.015 198.737 L 302.015 210.005 C 302.015 218.78199999999998 294.875 225.922 286.098 225.922 L 238.53000000000003 225.922 C 234.26300000000003 225.922 230.80400000000003 229.381 230.80400000000003 233.648 C 230.80400000000003 237.915 234.26300000000003 241.374 238.53000000000003 241.374 L 286.098 241.374 C 303.39500000000004 241.374 317.468 227.302 317.468 210.004 L 317.468 181.647 C 317.46700000000004 190.552 310.69100000000003 197.874 302.01500000000004 198.737 z" stroke-linecap="round" />
</g>
		<g transform="matrix(1 0 0 1 -8.33 -23.62)" id="Capa_1"  >
<path style="stroke: none; stroke-width: 1; stroke-dasharray: none; stroke-linecap: butt; stroke-dashoffset: 0; stroke-linejoin: miter; stroke-miterlimit: 4; fill: rgb(219,99,110); fill-rule: nonzero; opacity: 1;" vector-effect="non-scaling-stroke"  transform=" translate(-247.67, -232.38)" d="M 257.363 245.777 L 237.972 245.777 C 230.574 245.777 224.577 239.77999999999997 224.577 232.38199999999998 C 224.577 224.98399999999998 230.574 218.98699999999997 237.972 218.98699999999997 L 257.363 218.98699999999997 C 264.761 218.98699999999997 270.758 224.98399999999998 270.758 232.38199999999998 C 270.758 239.77999999999997 264.76099999999997 245.777 257.363 245.777 z" stroke-linecap="round" />
</g>
		<g transform="matrix(1 0 0 1 135.06 -116.57)" id="Capa_1"  >
<path style="stroke: none; stroke-width: 1; stroke-dasharray: none; stroke-linecap: butt; stroke-dashoffset: 0; stroke-linejoin: miter; stroke-miterlimit: 4; fill: rgb(149,214,164); fill-rule: nonzero; opacity: 1;" vector-effect="non-scaling-stroke"  transform=" translate(-391.06, -139.43)" d="M 422.535 110.251 C 422.432 110.25200000000001 422.329 110.253 422.225 110.253 L 359.581 110.253 C 366.82800000000003 110.253 372.70300000000003 116.128 372.70300000000003 123.376 L 372.70300000000003 163.568 C 372.70300000000003 168.67100000000002 379.42300000000006 170.531 382.04800000000006 166.155 L 411.74800000000005 116.62700000000001 C 414.03900000000004 112.80700000000002 418.10400000000004 110.41900000000001 422.53400000000005 110.26200000000001 L 422.53400000000005 110.25100000000002 z" stroke-linecap="round" />
</g>
</g>
</g>
</svg>